<svg width="33" height="32" viewBox="0 0 33 32" fill="none" xmlns="http://www.w3.org/2000/svg">
<path d="M16.5 3C16.5 2.20435 16.8161 1.44129 17.3787 0.87868C17.9413 0.316071 18.7044 0 19.5 0C20.2956 0 21.0587 0.316071 21.6213 0.87868C22.1839 1.44129 22.5 2.20435 22.5 3V4C22.5 4.53043 22.7107 5.03914 23.0858 5.41421C23.4609 5.78929 23.9696 6 24.5 6H30.5C31.0304 6 31.5391 6.21071 31.9142 6.58579C32.2893 6.96086 32.5 7.46957 32.5 8V14C32.5 14.5304 32.2893 15.0391 31.9142 15.4142C31.5391 15.7893 31.0304 16 30.5 16H29.5C28.7044 16 27.9413 16.3161 27.3787 16.8787C26.8161 17.4413 26.5 18.2044 26.5 19C26.5 19.7956 26.8161 20.5587 27.3787 21.1213C27.9413 21.6839 28.7044 22 29.5 22H30.5C31.0304 22 31.5391 22.2107 31.9142 22.5858C32.2893 22.9609 32.5 23.4696 32.5 24V30C32.5 30.5304 32.2893 31.0391 31.9142 31.4142C31.5391 31.7893 31.0304 32 30.5 32H24.5C23.9696 32 23.4609 31.7893 23.0858 31.4142C22.7107 31.0391 22.5 30.5304 22.5 30V29C22.5 28.2044 22.1839 27.4413 21.6213 26.8787C21.0587 26.3161 20.2956 26 19.5 26C18.7044 26 17.9413 26.3161 17.3787 26.8787C16.8161 27.4413 16.5 28.2044 16.5 29V30C16.5 30.5304 16.2893 31.0391 15.9142 31.4142C15.5391 31.7893 15.0304 32 14.5 32H8.5C7.96957 32 7.46086 31.7893 7.08579 31.4142C6.71071 31.0391 6.5 30.5304 6.5 30V24C6.5 23.4696 6.28929 22.9609 5.91421 22.5858C5.53914 22.2107 5.03043 22 4.5 22H3.5C2.70435 22 1.94129 21.6839 1.37868 21.1213C0.816071 20.5587 0.5 19.7956 0.5 19C0.5 18.2044 0.816071 17.4413 1.37868 16.8787C1.94129 16.3161 2.70435 16 3.5 16H4.5C5.03043 16 5.53914 15.7893 5.91421 15.4142C6.28929 15.0391 6.5 14.5304 6.5 14V8C6.5 7.46957 6.71071 6.96086 7.08579 6.58579C7.46086 6.21071 7.96957 6 8.5 6H14.5C15.0304 6 15.5391 5.78929 15.9142 5.41421C16.2893 5.03914 16.5 4.53043 16.5 4V3Z" fill="white"/>
</svg>
